# xmcd
#
# Track frame offsets:
# 150
# 15587
# 27187
# 40789
# 58277
# 71520
# 82795
# 96332
# 108717
# 128355
# 141195
# 150090
# 166215
# 181765
# 198407
# 212022
# 229527
# 241277
# 255992
# 268005
# 286372
# 305450
#
# Disc length: 4283 seconds
#
#
# Revision: 0
# Processed by: cddbd v1.5.2PL0 Copyright (c) Steve Scherf et al.
# Submitted via: FreeRIP 2.95 
#
DISCID=1c10b916
DTITLE=Cristiano Neves and Zezinho Barros - Série Dose Dupla - Cristiano Neves and Zezinho Barros
DYEAR=2007
DGENRE=Pop
TTITLE0=Minha Mãe
TTITLE1=Terra Prometida
TTITLE2=Touro De Rodeio
TTITLE3=Viúva Nova
TTITLE4=Sala De Reboco
TTITLE5=No Meu Pé De Serra
TTITLE6=Asa Branca
TTITLE7=Viajante Forrozeiro
TTITLE8=Tô De Olho Em Você
TTITLE9=O Sonho De Maria Bonita
TTITLE10=Juazeiro
TTITLE11=Coisinha Gostosa
TTITLE12=Cicatriz
TTITLE13=Mãe
TTITLE14=Estarei A Te Espera
TTITLE15=Tô Querendo Você
TTITLE16=Eu Lhe Servo De Cobertor
TTITLE17=Pobre De Mim
TTITLE18=Meu Coração Só Quer Chorar
TTITLE19=Brasil Meu País
TTITLE20=Os Caminhos Do Amor
TTITLE21=Pra Que Chorar
EXTD=
EXTT0=
EXTT1=
EXTT2=
EXTT3=
EXTT4=
EXTT5=
EXTT6=
EXTT7=
EXTT8=
EXTT9=
EXTT10=
EXTT11=
EXTT12=
EXTT13=
EXTT14=
EXTT15=
EXTT16=
EXTT17=
EXTT18=
EXTT19=
EXTT20=
EXTT21=
PLAYORDER=
